<?xml version="1.0" standalone="no"?>
<!DOCTYPE svg PUBLIC "-//W3C//DTD SVG 1.1//EN" "http://www.w3.org/Graphics/SVG/1.1/DTD/svg11.dtd" >
<svg xmlns="http://www.w3.org/2000/svg">
<metadata>
This is a custom SVG webfont generated by Font Squirrel.
Copyright   : Jayvee D Enaguas  2009 2010 NipCen FontMasters All Rights Reserved
</metadata>
<defs>
<font id="MonkirtaPursuitNCRegular" horiz-adv-x="1300" >
<font-face units-per-em="2048" ascent="1638" descent="-410" />
<missing-glyph horiz-adv-x="500" />
<glyph unicode=" "  horiz-adv-x="500" />
<glyph unicode="&#x09;" horiz-adv-x="500" />
<glyph unicode="&#xa0;" horiz-adv-x="500" />
<glyph unicode="!" horiz-adv-x="500" d="M0 0v200h300v-200h-300zM0 400v800h300v-800h-300z" />
<glyph unicode="&#x22;" horiz-adv-x="1000" d="M0 1200v200h300v-200l-100 -200h-100v200h-100zM500 1200v200h300v-200l-100 -200h-100v200h-100z" />
<glyph unicode="#" horiz-adv-x="1080" d="M0 288v176h144l49 237h-193v177h229l63 313h180l-64 -313h178l61 313h186l-64 -313h111v-177h-147l-48 -237h195v-176h-231l-63 -313h-179l61 313h-178l-63 -313h-181l63 313h-109zM326 464h178l46 237h-177z" />
<glyph unicode="$" horiz-adv-x="1200" d="M0 0v200h400v300h-200q-200 0 -200 200v300q0 200 200 200h200v200h200v-200h400v-200h-400v-300h200q200 0 200 -200v-300q0 -200 -200 -200h-200v-200h-200v200h-400zM300 700h100v300h-100v-300zM600 200h100v302h-100v-302z" />
<glyph unicode="%" horiz-adv-x="2200" d="M0 600v400q0 200 200 200h400q200 0 200 -200v-400q0 -200 -200 -200h-400q-200 0 -200 200zM250 600h300v400h-300v-400zM600 0l600 1200h200l-600 -1200h-200zM1200 200v400q0 200 200 200h400q200 0 200 -200v-400q0 -200 -200 -200h-400q-200 0 -200 200zM1450 200 h300v400h-300v-400z" />
<glyph unicode="&#x26;" d="M0 200v300q0 89 140 97q-9 -1 -18 -1q-122 0 -122 104v300q0 200 200 200h700v-200h-600v-300h400v191h300v-191h100v-200h-100v-500h-800q-200 0 -200 200zM300 200h400v300h-400v-300z" />
<glyph unicode="'" horiz-adv-x="600" d="M0 1200v200h400v-200l-200 -200h-100v200h-100z" />
<glyph unicode="(" horiz-adv-x="700" d="M0 400v200q0 400 300 800h200q-280 -400 -280 -800v-200q0 -400 280 -800h-200q-300 400 -300 800z" />
<glyph unicode=")" horiz-adv-x="700" d="M0 -400q280 400 280 800v200q0 400 -280 800h200q300 -400 300 -800v-200q0 -400 -300 -800h-200z" />
<glyph unicode="*" horiz-adv-x="925" d="M0 1066l59 176q131 -53 234 -117q-24 163 -24 266h178q0 -73 -27 -268q20 8 86 39q90 41 166 70l53 -181q-111 -25 -257 -49l120 -135q36 -41 57 -67l-153 -101l-135 223q-61 -108 -140 -230l-151 117q72 81 150 155q31 30 39 38q-25 4 -143 33q-85 21 -112 31z" />
<glyph unicode="+" horiz-adv-x="1200" d="M0 500v200h400v400h200v-400h400v-200h-400v-400h-200v400h-400z" />
<glyph unicode="," horiz-adv-x="500" d="M0 0v200h300v-200l-100 -200h-100v200h-100z" />
<glyph unicode="-" horiz-adv-x="1000" d="M0 500v200h800v-200h-800z" />
<glyph unicode="." horiz-adv-x="500" d="M0 0v200h300v-200h-300z" />
<glyph unicode="/" horiz-adv-x="1000" d="M0 -400l600 1800h200l-600 -1800h-200z" />
<glyph unicode="0" d="M0 200v800q0 200 200 200h700q200 0 200 -200v-800q0 -200 -200 -200h-700q-200 0 -200 200zM300 200h500v800h-500v-800z" />
<glyph unicode="1" horiz-adv-x="700" d="M0 1000l100 200h400v-1200h-300v1000h-200z" />
<glyph unicode="2" d="M0 0v400q0 112 200 200l600 200v200h-800v200h900q200 0 200 -200v-130q0 -172 -200 -270q-600 -196 -600 -200v-200h800v-200h-1100z" />
<glyph unicode="3" d="M0 0v200h800v300h-600v200h600v300h-800v200h900q200 0 200 -200v-300q0 -102 -100 -102q100 -7 100 -98v-300q0 -200 -200 -200h-900z" />
<glyph unicode="4" horiz-adv-x="1400" d="M0 300v300l600 600h450v-700h150v-200h-150v-300h-300v300h-750zM300 500h450v500h-50l-400 -400v-100z" />
<glyph unicode="5" d="M0 0v200h800v300h-800v700h1100v-200h-800v-300h600q200 0 200 -200v-300q0 -200 -200 -200h-900z" />
<glyph unicode="6" d="M0 200v800q0 200 200 200h900v-200h-800v-200h600q200 0 200 -200v-400q0 -200 -200 -200h-700q-200 0 -200 200zM300 200h500v400h-500v-400z" />
<glyph unicode="7" d="M0 1000v200h1100v-200l-600 -1000h-300l600 1000h-800z" />
<glyph unicode="8" d="M0 200v200q0 200 150 200q-150 8 -150 200v200q0 200 200 200h700q200 0 200 -200v-200q0 -200 -150 -200q150 0 150 -200v-200q0 -200 -200 -200h-700q-200 0 -200 200zM300 200h500v300h-500v-300zM300 700h500v300h-500v-300z" />
<glyph unicode="9" d="M0 0v200h800v200h-600q-200 0 -200 200v400q0 200 200 200h700q200 0 200 -200v-800q0 -200 -200 -200h-900zM300 600h500v400h-500v-400z" />
<glyph unicode=":" horiz-adv-x="500" d="M0 0v200h300v-200h-300zM0 800v200h300v-200h-300z" />
<glyph unicode=";" horiz-adv-x="500" d="M0 0v200h300v-200l-100 -200h-100v200h-100zM0 800v200h300v-200h-300z" />
<glyph unicode="&#x3c;" horiz-adv-x="1000" d="M0 500v200l800 400v-200l-600 -291l600 -309v-200z" />
<glyph unicode="=" horiz-adv-x="1000" d="M0 300v200h800v-200h-800zM0 700v200h800v-200h-800z" />
<glyph unicode="&#x3e;" horiz-adv-x="1000" d="M0 100v200l600 309l-600 291v200l800 -400v-200z" />
<glyph unicode="?" horiz-adv-x="1200" d="M0 1000v200h800q200 0 200 -200v-300l-400 -150v-150h-300v267l400 133v200h-700zM300 0v200h300v-200h-300z" />
<glyph unicode="@" horiz-adv-x="1800" d="M0 0v1000q0 400 400 400h800q400 0 400 -400v-600q0 -400 -400 -400h-600q-200 0 -200 200v600q0 200 200 200h600v-800q200 0 200 200v600q0 200 -200 200h-800q-200 0 -200 -200v-1000q0 -200 200 -200h1000v-200h-1000q-400 0 -400 400zM700 200h200v600h-200v-600z " />
<glyph unicode="A" d="M0 0v1000q0 200 200 200h700q200 0 200 -200v-1000h-300v400h-500v-400h-300zM300 600h500v400h-500v-400z" />
<glyph unicode="B" d="M0 0v1200h900q200 0 200 -200v-200q0 -200 -150 -200q150 0 150 -200v-200q0 -200 -200 -200h-900zM300 200h500v300h-500v-300zM300 700h500v300h-500v-300z" />
<glyph unicode="C" d="M0 200v800q0 200 200 200h900v-200h-800v-800h800v-200h-900q-200 0 -200 200z" />
<glyph unicode="D" d="M0 0v1200h900q200 0 200 -200v-800q0 -200 -200 -200h-900zM300 200h500v800h-500v-800z" />
<glyph unicode="E" d="M0 200v800q0 200 200 200h900v-200h-800v-300h600v-200h-600v-300h800v-200h-900q-200 0 -200 200z" />
<glyph unicode="F" d="M0 0v1000q0 200 200 200h900v-200h-800v-300h600v-200h-600v-500h-300z" />
<glyph unicode="G" d="M0 200v800q0 200 200 200h900v-200h-800v-800h500v300h-200v200h500v-700h-900q-200 0 -200 200z" />
<glyph unicode="H" d="M0 0v1200h300v-500h500v500h300v-1200h-300v500h-500v-500h-300z" />
<glyph unicode="I" horiz-adv-x="500" d="M0 0v1200h300v-1200h-300z" />
<glyph unicode="J" horiz-adv-x="900" d="M0 0v200h400v1000h300v-1000q0 -200 -200 -200h-500z" />
<glyph unicode="K" horiz-adv-x="1330" d="M0 0v1200h300v-550l500 550h290l-540 -550l580 -650h-330l-500 520v-520h-300z" />
<glyph unicode="L" d="M0 200v1000h300v-1000h800v-200h-900q-200 0 -200 200z" />
<glyph unicode="M" horiz-adv-x="1500" d="M0 0v1200h399l251 -870l247 870h403v-1200h-300v800l-200 -700h-358l-242 700v-800h-200z" />
<glyph unicode="N" d="M0 0v1200h400l500 -900v900h200v-1200h-400l-500 900v-900h-200z" />
<glyph unicode="O" d="M0 200v800q0 200 200 200h700q200 0 200 -200v-800q0 -200 -200 -200h-700q-200 0 -200 200zM300 200h500v800h-500v-800z" />
<glyph unicode="P" d="M0 0v1200h900q200 0 200 -200v-400q0 -200 -200 -200h-600v-400h-300zM300 600h500v400h-500v-400z" />
<glyph unicode="Q" d="M0 200v800q0 200 200 200h700q200 0 200 -200v-800q0 -200 -200 -200h-140l80 -200h-200l-80 200h-360q-200 0 -200 200zM300 200h140l-60 200h200l60 -200h160v800h-500v-800z" />
<glyph unicode="R" d="M0 0v1200h900q200 0 200 -200v-300q0 -200 -200 -200l200 -500h-300l-200 500h-300v-500h-300zM300 700h500v300h-500v-300z" />
<glyph unicode="S" d="M0 0v200h800v250l-600 100q-200 0 -200 200v250q0 200 200 200h900v-200h-800v-250l600 -100q200 0 200 -200v-250q0 -200 -200 -200h-900z" />
<glyph unicode="T" d="M0 1000v200h1100v-200h-400v-1000h-300v1000h-400z" />
<glyph unicode="U" d="M0 200v1005h300v-1005h500v1005h300v-1005q0 -200 -200 -200h-700q-200 0 -200 200z" />
<glyph unicode="V" d="M0 500v705h300v-805l500 -200v1005h300v-1205h-300l-600 200q-200 100 -200 300z" />
<glyph unicode="W" horiz-adv-x="1900" d="M0 1200h300l200 -800l200 800h358l242 -800l200 800h200l-300 -1200h-299l-251 870l-247 -870h-303z" />
<glyph unicode="X" horiz-adv-x="1316" d="M0 0l400 600l-400 600h330l270 -400l291 400h218l-392 -600l399 -600h-316l-266 414l-334 -414h-200z" />
<glyph unicode="Y" d="M0 800v400h300v-400q120 -95 245 -95t255 95v400h300v-400q0 -200 -400 -300v-500h-300v500q-400 100 -400 300z" />
<glyph unicode="Z" d="M0 0v200l700 800h-700v200h1100v-200l-700 -800h700v-200h-1100z" />
<glyph unicode="[" horiz-adv-x="800" d="M0 -400v1800h600v-200h-300v-1400h300v-200h-600z" />
<glyph unicode="\" horiz-adv-x="1000" d="M0 1400h200l600 -1800h-200z" />
<glyph unicode="]" horiz-adv-x="800" d="M0 -200h300v1400h-300v200h600v-1800h-600v200z" />
<glyph unicode="^" horiz-adv-x="1200" d="M0 600l400 800h200l400 -800h-200l-291 600l-309 -600h-200z" />
<glyph unicode="_" horiz-adv-x="1000" d="M0 -200h800v-200h-800v200z" />
<glyph unicode="`" horiz-adv-x="600" d="M0 1400h300l100 -400h-200z" />
<glyph unicode="a" horiz-adv-x="1200" d="M0 200v200q0 200 200 200h500v200h-600v200h700q200 0 200 -200v-800h-800q-200 0 -200 200zM300 200h400v200h-400v-200z" />
<glyph unicode="b" horiz-adv-x="1200" d="M0 0v1400h300v-400h500q200 0 200 -200v-600q0 -200 -200 -200h-800zM300 200h400v600h-400v-600z" />
<glyph unicode="c" horiz-adv-x="1200" d="M0 200v600q0 200 200 200h800v-200h-700v-600h700v-200h-800q-200 0 -200 200z" />
<glyph unicode="d" horiz-adv-x="1200" d="M0 200v600q0 200 200 200h500v400h300v-1400h-800q-200 0 -200 200zM300 200h400v600h-400v-600z" />
<glyph unicode="e" horiz-adv-x="1200" d="M0 200v600q0 200 200 200h600q200 0 200 -200v-400h-700v-200h700v-200h-800q-200 0 -200 200zM300 600h400v200h-400v-200z" />
<glyph unicode="f" horiz-adv-x="1000" d="M0 800v200h200v200q0 200 200 200h400v-200h-300v-200h300v-200h-300v-800h-300v800h-200z" />
<glyph unicode="g" horiz-adv-x="1200" d="M0 -200h700v200h-500q-200 0 -200 200v600q0 200 200 200h800v-1200q0 -200 -200 -200h-800v200zM300 200h400v600h-400v-600z" />
<glyph unicode="h" horiz-adv-x="1200" d="M0 5v1395h300v-400h500q200 0 200 -200v-795h-300v795h-400v-795h-300z" />
<glyph unicode="i" horiz-adv-x="500" d="M0 0v1000h300v-1000h-300zM0 1200v200h300v-200h-300z" />
<glyph unicode="j" horiz-adv-x="800" d="M0 -200h300v1200h300v-1200q0 -200 -200 -200h-400v200zM300 1200v200h300v-200h-300z" />
<glyph unicode="k" horiz-adv-x="1200" d="M0 0v1300h300v-750l400 450h270l-440 -470l470 -530h-300l-400 450v-450h-300z" />
<glyph unicode="l" horiz-adv-x="500" d="M0 0v1400h300v-1400h-300z" />
<glyph unicode="m" horiz-adv-x="1700" d="M0 0v1000h1300q200 0 200 -200v-800h-300v800h-300v-800h-300v800h-300v-800h-300z" />
<glyph unicode="n" horiz-adv-x="1200" d="M0 5v995h800q200 0 200 -200v-795h-300v795h-400v-795h-300z" />
<glyph unicode="o" horiz-adv-x="1200" d="M0 200v600q0 200 200 200h600q200 0 200 -200v-600q0 -200 -200 -200h-600q-200 0 -200 200zM300 200h400v600h-400v-600z" />
<glyph unicode="p" horiz-adv-x="1200" d="M0 -400v1400h800q200 0 200 -200v-600q0 -200 -200 -200h-500v-400h-300zM300 200h400v600h-400v-600z" />
<glyph unicode="q" horiz-adv-x="1200" d="M0 200v600q0 200 200 200h800v-1400h-300v400h-500q-200 0 -200 200zM300 200h400v600h-400v-600z" />
<glyph unicode="r" horiz-adv-x="900" d="M0 0v800q0 200 200 200h500v-200h-400v-800h-300z" />
<glyph unicode="s" horiz-adv-x="1200" d="M0 0v200h700v150l-500 100q-200 0 -200 200v150q0 200 200 200h800v-200h-700v-150l500 -100q200 0 200 -200v-150q0 -200 -200 -200h-800z" />
<glyph unicode="t" horiz-adv-x="1000" d="M0 800v200h200v300l300 100v-400h300v-200h-300v-600h300v-200h-400q-200 0 -200 200v600h-200z" />
<glyph unicode="u" horiz-adv-x="1200" d="M0 205v795h300v-795h400v795h300v-995h-800q-200 0 -200 200z" />
<glyph unicode="v" horiz-adv-x="1200" d="M0 400v605h300v-705l400 -100v805h300v-1005h-300l-500 100q-200 100 -200 300z" />
<glyph unicode="w" horiz-adv-x="1700" d="M0 1000h300l150 -700l200 700h278l222 -700l150 700h200l-250 -1000h-299l-201 670l-197 -670h-303z" />
<glyph unicode="x" horiz-adv-x="1209" d="M0 0l350 470l-350 530h330l220 -300l241 300h218l-342 -460l329 -540h-316l-206 324l-274 -324h-200z" />
<glyph unicode="y" horiz-adv-x="1200" d="M0 -200h700v200h-500q-200 0 -200 200v799h300v-799h400v799h300v-1199q0 -200 -200 -200h-800v200z" />
<glyph unicode="z" horiz-adv-x="1200" d="M0 0v200l600 600h-600v200h1000v-200l-600 -600h600v-200h-1000z" />
<glyph unicode="{" horiz-adv-x="800" d="M0 400v200q200 0 200 200v200q0 400 400 400v-200q-200 0 -200 -200v-300q0 -200 -200 -200q200 0 200 -300v-200q0 -200 200 -200v-200q-400 0 -400 400v200q0 200 -200 200z" />
<glyph unicode="|" horiz-adv-x="400" d="M0 -400v1800h200v-1800h-200z" />
<glyph unicode="}" horiz-adv-x="800" d="M0 -200q200 0 200 200v200q0 300 200 300q-200 0 -200 200v300q0 200 -200 200v200q400 0 400 -400v-200q0 -200 200 -200v-200q-200 0 -200 -200v-200q0 -400 -400 -400v200z" />
<glyph unicode="~" horiz-adv-x="1262" d="M0 439v179q127 138 296 138q63 0 116 -12.5t190.5 -68t186.5 -55.5q56 0 129.5 34.5t143.5 109.5v-190q-46 -48 -128.5 -90t-170.5 -42q-50 0 -97.5 12t-150.5 57q-154 67 -242 67q-140 0 -273 -139z" />
<glyph unicode="&#xa1;" horiz-adv-x="500" d="M300 1000v-200h-300v200h300zM300 600v-800h-300v800h300z" />
<glyph unicode="&#xa2;" horiz-adv-x="1200" d="M0 200v600q0 200 200 200h200v200h200v-200h400v-200h-700v-600h700v-200h-400v-200h-200v200h-200q-200 0 -200 200z" />
<glyph unicode="&#xa3;" horiz-adv-x="1400" d="M0 500v200h200v100q0 400 500 400h400v-200h-400q-200 0 -200 -200v-100h500v-200h-500v-300h700v-200h-1000v500h-200z" />
<glyph unicode="&#xa4;" horiz-adv-x="996" d="M0 868l127 136l104 -104q40 22 82 33t84 11q44 0 86 -11t82 -33l102 102l128 -129l-101 -101q21 -39 32 -81t11 -86t-11 -85.5t-32 -81.5l102 -101l-127 -131l-104 104q-38 -21 -80 -32.5t-87 -11.5q-43 0 -84 11t-81 32l-99 -100l-130 128l99 101q-21 40 -32 81.5 t-11 85.5t10 84.5t31 78.5zM244 605q0 -64 45.5 -109t108.5 -45q64 0 109.5 45t45.5 109t-45.5 109t-109.5 45t-109 -45t-45 -109z" />
<glyph unicode="&#xa5;" d="M0 800v400h300v-400q120 -95 245 -95t255 95v400h300v-400q0 -200 -400 -300v-99h300v-201l-300 -1v-198l-300 -1v205l-300 -3v192l300 4v102q-400 100 -400 300z" />
<glyph unicode="&#xa6;" horiz-adv-x="400" d="M0 -400v800h200v-800h-200zM0 600v800h200v-800h-200z" />
<glyph unicode="&#xa7;" horiz-adv-x="1200" d="M0 -200h700v170l-400 83q-300 47 -300 247v700q0 200 200 200h800v-200h-700v-170l400 -83q300 -47 300 -247v-700q0 -200 -200 -200h-800v200zM300 300l400 -100v300l-400 100v-300z" />
<glyph unicode="&#xa8;" horiz-adv-x="1200" d="M0 1200v200h300v-200h-300zM700 1200v200h300v-200h-300z" />
<glyph unicode="&#xa9;" horiz-adv-x="1800" d="M0 0v1000q0 400 400 400h800q400 0 400 -400v-1000q0 -400 -400 -400h-800q-400 0 -400 400zM200 0q0 -200 200 -200h800q200 0 200 200v1000q0 200 -200 200h-800q-200 0 -200 -200v-1000zM400 200v600q0 200 200 200h600v-200h-500v-600h500v-200h-600q-200 0 -200 200 z" />
<glyph unicode="&#xaa;" horiz-adv-x="1100" d="M0 600v200q0 200 200 200h400v200h-500v200h600q200 0 200 -200v-800h-700q-200 0 -200 200zM300 600h300v200h-300v-200z" />
<glyph unicode="&#xab;" horiz-adv-x="1140" d="M0 600l300 400h200l-300 -400l300 -400h-200zM440 600l300 400h200l-300 -400l300 -400h-200z" />
<glyph unicode="&#xac;" horiz-adv-x="1000" d="M0 500v200h800v-400h-200v200h-600z" />
<glyph unicode="&#xad;" horiz-adv-x="1000" d="M0 500v200h800v-200h-800z" />
<glyph unicode="&#xae;" horiz-adv-x="1800" d="M0 0v1000q0 400 400 400h800q400 0 400 -400v-1000q0 -400 -400 -400h-800q-400 0 -400 400zM200 0q0 -200 200 -200h800q200 0 200 200v1000q0 200 -200 200h-800q-200 0 -200 -200v-1000zM400 0v1000h600q200 0 200 -200v-300q0 -98 -136 -98q136 -8 136 -102v-300 h-300v300h-200v-300h-300zM700 500h200v300h-200v-300z" />
<glyph unicode="&#xb0;" horiz-adv-x="1000" d="M0 1000q0 166 117 283t283 117t283 -117t117 -283t-117 -283t-283 -117t-283 117t-117 283zM200 1000q0 -83 58.5 -141.5t141.5 -58.5t141.5 58.5t58.5 141.5t-58.5 141.5t-141.5 58.5t-141.5 -58.5t-58.5 -141.5z" />
<glyph unicode="&#xb1;" horiz-adv-x="1200" d="M0 0v200h1000v-200h-1000zM0 700v200h400v300h200v-300h400v-200h-400v-300h-200v300h-400z" />
<glyph unicode="&#xb2;" horiz-adv-x="1100" d="M0 400v300q0 112 200 200l400 200v100h-600v200h700q200 0 200 -200v-30q0 -172 -200 -270q-400 -196 -400 -200v-100h600v-200h-900z" />
<glyph unicode="&#xb3;" horiz-adv-x="1100" d="M0 400v200h600v200h-400v200h400v200h-600v200h700q200 0 200 -200v-200q0 -102 -100 -102q100 -7 100 -98v-200q0 -200 -200 -200h-700z" />
<glyph unicode="&#xb4;" horiz-adv-x="600" d="M0 1000l100 400h300l-200 -400h-200z" />
<glyph unicode="&#xb5;" horiz-adv-x="1200" d="M0 -400v1400h300v-800h400v800h300v-800q0 -200 -200 -200h-500v-400h-300z" />
<glyph unicode="&#xb6;" horiz-adv-x="1200" d="M0 800q0 400 400 400l600 -4v-1596h-200v1400h-200v-1400h-200v800q-400 0 -400 400z" />
<glyph unicode="&#xb7;" horiz-adv-x="500" d="M0 500v200h300v-200h-300z" />
<glyph unicode="&#xb8;" horiz-adv-x="600" d="M0 -200q200 0 200 200v200h200v-200q0 -400 -400 -400v200z" />
<glyph unicode="&#xb9;" horiz-adv-x="700" d="M0 1200l100 200h400v-1000h-300v800h-200z" />
<glyph unicode="&#xba;" horiz-adv-x="1100" d="M0 600v600q0 200 200 200h500q200 0 200 -200v-600q0 -200 -200 -200h-500q-200 0 -200 200zM300 600h300v600h-300v-600z" />
<glyph unicode="&#xbb;" horiz-adv-x="1140" d="M0 200l300 400l-300 400h200l300 -400l-300 -400h-200zM440 200l300 400l-300 400h200l300 -400l-300 -400h-200z" />
<glyph unicode="&#xbc;" horiz-adv-x="2400" d="M0 1000l100 200h400v-1000h-300v800h-200zM600 0l600 1200h200l-600 -1200h-200zM1200 200v300l400 500h450v-600h150v-200h-150v-200h-300v200h-550zM1460 400h290v400h-50l-240 -300v-100z" />
<glyph unicode="&#xbd;" horiz-adv-x="2500" d="M0 1000l100 200h400v-1000h-300v800h-200zM600 0l600 1200h200l-600 -1200h-200zM1400 0v300q0 112 200 200l400 200v100h-600v200h700q200 0 200 -200v-30q0 -172 -200 -270q-400 -196 -400 -200v-100h600v-200h-900z" />
<glyph unicode="&#xbe;" horiz-adv-x="2700" d="M0 200v200h600v200h-400v200h400v200h-600v200h700q200 0 200 -200v-200q0 -102 -100 -102q100 -7 100 -98v-200q0 -200 -200 -200h-700zM900 0l600 1200h200l-600 -1200h-200zM1500 200v300l400 500h450v-600h150v-200h-150v-200h-300v200h-550zM1760 400h290v400h-50 l-240 -300v-100z" />
<glyph unicode="&#xbf;" horiz-adv-x="1200" d="M1000 0v-200h-800q-200 0 -200 200v300l400 150v150h300v-267l-400 -133v-200h700zM700 1000v-200h-300v200h300z" />
<glyph unicode="&#xc0;" d="M0 0v1000q0 200 200 200h700q200 0 200 -200v-1000h-300v400h-500v-400h-300zM217 1700h300l100 -400h-200zM300 600h500v400h-500v-400z" />
<glyph unicode="&#xc1;" d="M0 0v1000q0 200 200 200h700q200 0 200 -200v-1000h-300v400h-500v-400h-300zM300 600h500v400h-500v-400zM417 1300l100 400h300l-200 -400h-200z" />
<glyph unicode="&#xc2;" d="M0 0v1000q0 200 200 200h700q200 0 200 -200v-1000h-300v400h-500v-400h-300zM300 600h500v400h-500v-400zM150 1300l300 400h200l300 -400h-200l-200 200l-200 -200h-200z" />
<glyph unicode="&#xc3;" d="M0 0v1000q0 200 200 200h700q200 0 200 -200v-1000h-300v400h-500v-400h-300zM300 600h500v400h-500v-400zM204 1371q0 105 51 161.5t131 56.5q35 0 65 -7.5t109.5 -43t124.5 -35.5q32 0 53.5 20t27.5 67h130q-1 -135 -50.5 -193t-127.5 -58q-34 0 -67 7q-23 6 -115 41 t-134 35q-32 0 -50 -19.5t-19 -67.5h-128q-1 23 -1 36z" />
<glyph unicode="&#xc4;" d="M0 0v1000q0 200 200 200h700q200 0 200 -200v-1000h-300v400h-500v-400h-300zM300 600h500v400h-500v-400zM50 1400v200h300v-200h-300zM750 1400v200h300v-200h-300z" />
<glyph unicode="&#xc5;" d="M0 0v1000q0 200 200 200h700q200 0 200 -200v-1000h-300v400h-500v-400h-300zM300 600h500v400h-500v-400zM254 1601q0 124 86.5 211.5t209.5 87.5t209.5 -87.5t86.5 -211.5t-86.5 -211.5t-209.5 -87.5t-209.5 87.5t-86.5 211.5zM402 1601q0 -62 43.5 -105.5t104.5 -43.5 t104.5 43.5t43.5 105.5t-43.5 106t-104.5 44t-104.5 -44t-43.5 -106z" />
<glyph unicode="&#xc6;" horiz-adv-x="1900" d="M0 0v1000q0 200 200 200h1500v-200h-700v-300h500v-200h-500v-300h700v-200h-800q-200 0 -200 200v200h-400v-400h-300zM300 600h400v400h-400v-400z" />
<glyph unicode="&#xc7;" d="M0 200v800q0 200 200 200h900v-200h-800v-800h800v-200h-900q-200 0 -200 200zM300 -200q200 0 200 200v200h200v-200q0 -400 -400 -400v200z" />
<glyph unicode="&#xc8;" d="M0 200v800q0 200 200 200h900v-200h-800v-300h600v-200h-600v-300h800v-200h-900q-200 0 -200 200zM283 1700h300l100 -400h-200z" />
<glyph unicode="&#xc9;" d="M0 200v800q0 200 200 200h900v-200h-800v-300h600v-200h-600v-300h800v-200h-900q-200 0 -200 200zM417 1300l100 400h300l-200 -400h-200z" />
<glyph unicode="&#xca;" d="M0 200v800q0 200 200 200h900v-200h-800v-300h600v-200h-600v-300h800v-200h-900q-200 0 -200 200zM150 1300l300 400h200l300 -400h-200l-200 200l-200 -200h-200z" />
<glyph unicode="&#xcb;" d="M0 200v800q0 200 200 200h900v-200h-800v-300h600v-200h-600v-300h800v-200h-900q-200 0 -200 200zM50 1400v200h300v-200h-300zM750 1400v200h300v-200h-300z" />
<glyph unicode="&#xcc;" horiz-adv-x="617" d="M117 0v1200h300v-1200h-300zM0 1700h300l100 -400h-200z" />
<glyph unicode="&#xcd;" horiz-adv-x="617" d="M0 0v1200h300v-1200h-300zM17 1300l100 400h300l-200 -400h-200z" />
<glyph unicode="&#xce;" horiz-adv-x="1000" d="M250 0v1200h300v-1200h-300zM0 1300l300 400h200l300 -400h-200l-200 200l-200 -200h-200z" />
<glyph unicode="&#xcf;" horiz-adv-x="1200" d="M350 0v1200h300v-1200h-300zM0 1400v200h300v-200h-300zM700 1400v200h300v-200h-300z" />
<glyph unicode="&#xd0;" horiz-adv-x="1400" d="M0 500v200h100v500h900q200 0 200 -200v-800q0 -200 -200 -200h-900v500h-100zM400 200h500v800h-500v-300h100v-200h-100v-300z" />
<glyph unicode="&#xd1;" d="M0 0v1200h400l500 -900v900h200v-1200h-400l-500 900v-900h-200zM204 1371q0 105 51 161.5t131 56.5q35 0 65 -7.5t109.5 -43t124.5 -35.5q32 0 53.5 20t27.5 67h130q-1 -135 -50.5 -193t-127.5 -58q-34 0 -67 7q-23 6 -115 41t-134 35q-32 0 -50 -19.5t-19 -67.5h-128 q-1 23 -1 36z" />
<glyph unicode="&#xd2;" d="M0 200v800q0 200 200 200h700q200 0 200 -200v-800q0 -200 -200 -200h-700q-200 0 -200 200zM300 200h500v800h-500v-800zM283 1700h300l100 -400h-200z" />
<glyph unicode="&#xd3;" d="M0 200v800q0 200 200 200h700q200 0 200 -200v-800q0 -200 -200 -200h-700q-200 0 -200 200zM300 200h500v800h-500v-800zM417 1300l100 400h300l-200 -400h-200z" />
<glyph unicode="&#xd4;" d="M0 200v800q0 200 200 200h700q200 0 200 -200v-800q0 -200 -200 -200h-700q-200 0 -200 200zM300 200h500v800h-500v-800zM150 1300l300 400h200l300 -400h-200l-200 200l-200 -200h-200z" />
<glyph unicode="&#xd5;" d="M0 200v800q0 200 200 200h700q200 0 200 -200v-800q0 -200 -200 -200h-700q-200 0 -200 200zM300 200h500v800h-500v-800zM204 1371q0 105 51 161.5t131 56.5q35 0 65 -7.5t109.5 -43t124.5 -35.5q32 0 53.5 20t27.5 67h130q-1 -135 -50.5 -193t-127.5 -58q-34 0 -67 7 q-23 6 -115 41t-134 35q-32 0 -50 -19.5t-19 -67.5h-128q-1 23 -1 36z" />
<glyph unicode="&#xd6;" d="M0 200v800q0 200 200 200h700q200 0 200 -200v-800q0 -200 -200 -200h-700q-200 0 -200 200zM300 200h500v800h-500v-800zM50 1400v200h300v-200h-300zM750 1400v200h300v-200h-300z" />
<glyph unicode="&#xd7;" horiz-adv-x="1049" d="M0 313l283 283l-283 283l141 141l283 -282l283 282l142 -141l-283 -283l283 -283l-142 -141l-283 283l-283 -283z" />
<glyph unicode="&#xd8;" d="M0 200v800q0 200 200 200h700q200 0 200 -200v-800q0 -200 -200 -200h-700q-200 0 -200 200zM300 200h500v400l-500 -200v-200zM300 600l500 200v200h-500v-400z" />
<glyph unicode="&#xd9;" d="M0 200v1005h300v-1005h500v1005h300v-1005q0 -200 -200 -200h-700q-200 0 -200 200zM283 1700h300l100 -400h-200z" />
<glyph unicode="&#xda;" d="M0 200v1005h300v-1005h500v1005h300v-1005q0 -200 -200 -200h-700q-200 0 -200 200zM417 1300l100 400h300l-200 -400h-200z" />
<glyph unicode="&#xdb;" d="M0 200v1005h300v-1005h500v1005h300v-1005q0 -200 -200 -200h-700q-200 0 -200 200zM150 1300l300 400h200l300 -400h-200l-200 200l-200 -200h-200z" />
<glyph unicode="&#xdc;" d="M0 200v1005h300v-1005h500v1005h300v-1005q0 -200 -200 -200h-700q-200 0 -200 200zM50 1400v200h300v-200h-300zM750 1400v200h300v-200h-300z" />
<glyph unicode="&#xdd;" d="M0 800v400h300v-400q120 -95 245 -95t255 95v400h300v-400q0 -200 -400 -300v-500h-300v500q-400 100 -400 300zM442 1300l100 400h300l-200 -400h-200z" />
<glyph unicode="&#xde;" d="M0 0v1200h300v-250h600q200 0 200 -200v-300q0 -200 -200 -200h-600v-250h-300zM300 450h500v300h-500v-300z" />
<glyph unicode="&#xdf;" d="M0 0v1200h900q200 0 200 -200v-200q0 -200 -150 -200q150 0 150 -200v-200q0 -200 -200 -200h-398v200h298v300h-298v200h298v300h-500v-1000h-300z" />
<glyph unicode="&#xe0;" horiz-adv-x="1200" d="M0 200v200q0 200 200 200h500v200h-600v200h700q200 0 200 -200v-800h-800q-200 0 -200 200zM300 200h400v200h-400v-200zM233 1500h300l100 -400h-200z" />
<glyph unicode="&#xe1;" horiz-adv-x="1200" d="M0 200v200q0 200 200 200h500v200h-600v200h700q200 0 200 -200v-800h-800q-200 0 -200 200zM300 200h400v200h-400v-200zM367 1100l100 400h300l-200 -400h-200z" />
<glyph unicode="&#xe2;" horiz-adv-x="1200" d="M0 200v200q0 200 200 200h500v200h-600v200h700q200 0 200 -200v-800h-800q-200 0 -200 200zM300 200h400v200h-400v-200zM100 1100l300 400h200l300 -400h-200l-200 200l-200 -200h-200z" />
<glyph unicode="&#xe3;" horiz-adv-x="1200" d="M0 200v200q0 200 200 200h500v200h-600v200h700q200 0 200 -200v-800h-800q-200 0 -200 200zM300 200h400v200h-400v-200zM154 1171q0 105 51 161.5t131 56.5q35 0 65 -7.5t109.5 -43t124.5 -35.5q32 0 53.5 20t27.5 67h130q-1 -135 -50.5 -193t-127.5 -58q-34 0 -67 7 q-23 6 -115 41t-134 35q-32 0 -50 -19.5t-19 -67.5h-128q-1 23 -1 36z" />
<glyph unicode="&#xe4;" horiz-adv-x="1200" d="M0 200v200q0 200 200 200h500v200h-600v200h700q200 0 200 -200v-800h-800q-200 0 -200 200zM300 200h400v200h-400v-200zM0 1200v200h300v-200h-300zM700 1200v200h300v-200h-300z" />
<glyph unicode="&#xe5;" horiz-adv-x="1200" d="M0 200v200q0 200 200 200h500v200h-600v200h700q200 0 200 -200v-800h-800q-200 0 -200 200zM300 200h400v200h-400v-200zM204 1401q0 124 86.5 211.5t209.5 87.5t209.5 -87.5t86.5 -211.5t-86.5 -211.5t-209.5 -87.5t-209.5 87.5t-86.5 211.5zM352 1401 q0 -62 43.5 -105.5t104.5 -43.5t104.5 43.5t43.5 105.5t-43.5 106t-104.5 44t-104.5 -44t-43.5 -106z" />
<glyph unicode="&#xe6;" horiz-adv-x="1700" d="M0 200v200q0 200 200 200h400v200h-500v200h1200q200 0 200 -200v-400h-600v-200h600v-200h-1300q-200 0 -200 200zM300 200h300v200h-300v-200zM900 600h300v200h-300v-200z" />
<glyph unicode="&#xe7;" horiz-adv-x="1200" d="M0 200v600q0 200 200 200h800v-200h-700v-600h700v-200h-800q-200 0 -200 200zM300 -200q200 0 200 200v200h200v-200q0 -400 -400 -400v200z" />
<glyph unicode="&#xe8;" horiz-adv-x="1200" d="M0 200v600q0 200 200 200h600q200 0 200 -200v-400h-700v-200h700v-200h-800q-200 0 -200 200zM300 600h400v200h-400v-200zM233 1500h300l100 -400h-200z" />
<glyph unicode="&#xe9;" horiz-adv-x="1200" d="M0 200v600q0 200 200 200h600q200 0 200 -200v-400h-700v-200h700v-200h-800q-200 0 -200 200zM300 600h400v200h-400v-200zM367 1100l100 400h300l-200 -400h-200z" />
<glyph unicode="&#xea;" horiz-adv-x="1200" d="M0 200v600q0 200 200 200h600q200 0 200 -200v-400h-700v-200h700v-200h-800q-200 0 -200 200zM300 600h400v200h-400v-200zM100 1100l300 400h200l300 -400h-200l-200 200l-200 -200h-200z" />
<glyph unicode="&#xeb;" horiz-adv-x="1200" d="M0 200v600q0 200 200 200h600q200 0 200 -200v-400h-700v-200h700v-200h-800q-200 0 -200 200zM300 600h400v200h-400v-200zM0 1200v200h300v-200h-300zM700 1200v200h300v-200h-300z" />
<glyph unicode="&#xec;" horiz-adv-x="617" d="M117 0v1000h300v-1000h-300zM0 1500h300l100 -400h-200z" />
<glyph unicode="&#xed;" horiz-adv-x="617" d="M0 0v1000h300v-1000h-300zM17 1100l100 400h300l-200 -400h-200z" />
<glyph unicode="&#xee;" horiz-adv-x="1000" d="M250 0v1000h300v-1000h-300zM0 1100l300 400h200l300 -400h-200l-200 200l-200 -200h-200z" />
<glyph unicode="&#xef;" horiz-adv-x="1200" d="M350 0v1000h300v-1000h-300zM0 1200v200h300v-200h-300zM700 1200v200h300v-200h-300z" />
<glyph unicode="&#xf0;" d="M0 200v500q0 200 200 200h600v100q0 200 -200 200h-200l-100 -200l-150 100l50 100h-100v200h200l100 200l170 -90l-70 -110h200q400 0 400 -400v-800q0 -200 -200 -200h-700q-200 0 -200 200zM300 200h500v500h-500v-500z" />
<glyph unicode="&#xf1;" horiz-adv-x="1200" d="M0 5v995h800q200 0 200 -200v-795h-300v795h-400v-795h-300zM154 1171q0 105 51 161.5t131 56.5q35 0 65 -7.5t109.5 -43t124.5 -35.5q32 0 53.5 20t27.5 67h130q-1 -135 -50.5 -193t-127.5 -58q-34 0 -67 7q-23 6 -115 41t-134 35q-32 0 -50 -19.5t-19 -67.5h-128 q-1 23 -1 36z" />
<glyph unicode="&#xf2;" horiz-adv-x="1200" d="M0 200v600q0 200 200 200h600q200 0 200 -200v-600q0 -200 -200 -200h-600q-200 0 -200 200zM300 200h400v600h-400v-600zM233 1500h300l100 -400h-200z" />
<glyph unicode="&#xf3;" horiz-adv-x="1200" d="M0 200v600q0 200 200 200h600q200 0 200 -200v-600q0 -200 -200 -200h-600q-200 0 -200 200zM300 200h400v600h-400v-600zM367 1100l100 400h300l-200 -400h-200z" />
<glyph unicode="&#xf4;" horiz-adv-x="1200" d="M0 200v600q0 200 200 200h600q200 0 200 -200v-600q0 -200 -200 -200h-600q-200 0 -200 200zM300 200h400v600h-400v-600zM100 1100l300 400h200l300 -400h-200l-200 200l-200 -200h-200z" />
<glyph unicode="&#xf5;" horiz-adv-x="1200" d="M0 200v600q0 200 200 200h600q200 0 200 -200v-600q0 -200 -200 -200h-600q-200 0 -200 200zM300 200h400v600h-400v-600zM154 1171q0 105 51 161.5t131 56.5q35 0 65 -7.5t109.5 -43t124.5 -35.5q32 0 53.5 20t27.5 67h130q-1 -135 -50.5 -193t-127.5 -58q-34 0 -67 7 q-23 6 -115 41t-134 35q-32 0 -50 -19.5t-19 -67.5h-128q-1 23 -1 36z" />
<glyph unicode="&#xf6;" horiz-adv-x="1200" d="M0 200v600q0 200 200 200h600q200 0 200 -200v-600q0 -200 -200 -200h-600q-200 0 -200 200zM300 200h400v600h-400v-600zM0 1200v200h300v-200h-300zM700 1200v200h300v-200h-300z" />
<glyph unicode="&#xf7;" horiz-adv-x="1200" d="M0 500v200h1000v-200h-1000zM400 100v200h200v-200h-200zM400 900v200h200v-200h-200z" />
<glyph unicode="&#xf8;" horiz-adv-x="1200" d="M0 200v600q0 200 200 200h600q200 0 200 -200v-600q0 -200 -200 -200h-600q-200 0 -200 200zM300 200h400v300l-400 -200v-100zM300 500l400 200v100h-400v-300z" />
<glyph unicode="&#xf9;" horiz-adv-x="1200" d="M0 205v795h300v-795h400v795h300v-995h-800q-200 0 -200 200zM233 1500h300l100 -400h-200z" />
<glyph unicode="&#xfa;" horiz-adv-x="1200" d="M0 205v795h300v-795h400v795h300v-995h-800q-200 0 -200 200zM367 1100l100 400h300l-200 -400h-200z" />
<glyph unicode="&#xfb;" horiz-adv-x="1200" d="M0 205v795h300v-795h400v795h300v-995h-800q-200 0 -200 200zM100 1100l300 400h200l300 -400h-200l-200 200l-200 -200h-200z" />
<glyph unicode="&#xfc;" horiz-adv-x="1200" d="M0 205v795h300v-795h400v795h300v-995h-800q-200 0 -200 200zM0 1200v200h300v-200h-300zM700 1200v200h300v-200h-300z" />
<glyph unicode="&#xfd;" horiz-adv-x="1200" d="M0 -200h700v200h-500q-200 0 -200 200v799h300v-799h400v799h300v-1199q0 -200 -200 -200h-800v200zM367 1100l100 400h300l-200 -400h-200z" />
<glyph unicode="&#xfe;" d="M0 -400v1800h300v-410h600q200 0 200 -200v-590q0 -200 -200 -200h-600v-400h-300zM300 200h500v590h-500v-590z" />
<glyph unicode="&#xff;" horiz-adv-x="1200" d="M0 -200h700v200h-500q-200 0 -200 200v799h300v-799h400v799h300v-1199q0 -200 -200 -200h-800v200zM0 1200v200h300v-200h-300zM700 1200v200h300v-200h-300z" />
<glyph unicode="&#x131;" horiz-adv-x="500" d="M0 0v1000h300v-1000h-300z" />
<glyph unicode="&#x152;" horiz-adv-x="1900" d="M0 200v800q0 200 200 200h1500v-200h-700v-300h500v-200h-500v-300h700v-200h-1500q-200 0 -200 200zM300 200h400v800h-400v-800z" />
<glyph unicode="&#x153;" horiz-adv-x="1700" d="M0 200v600q0 200 200 200h1100q200 0 200 -200v-400h-600v-200h600v-200h-1300q-200 0 -200 200zM300 200h300v600h-300v-600zM900 600h300v200h-300v-200z" />
<glyph unicode="&#x178;" d="M0 800v400h300v-400q120 -95 245 -95t255 95v400h300v-400q0 -200 -400 -300v-500h-300v500q-400 100 -400 300zM50 1400v200h300v-200h-300zM750 1400v200h300v-200h-300z" />
<glyph unicode="&#x2c6;" horiz-adv-x="1000" d="M0 1000l300 400h200l300 -400h-200l-200 200l-200 -200h-200z" />
<glyph unicode="&#x2da;" horiz-adv-x="792" d="M0 1101q0 124 86.5 211.5t209.5 87.5t209.5 -87.5t86.5 -211.5t-86.5 -211.5t-209.5 -87.5t-209.5 87.5t-86.5 211.5zM148 1101q0 -62 43.5 -105.5t104.5 -43.5t104.5 43.5t43.5 105.5t-43.5 106t-104.5 44t-104.5 -44t-43.5 -106z" />
<glyph unicode="&#x2dc;" horiz-adv-x="892" d="M0 1171q0 105 51 161.5t131 56.5q35 0 65 -7.5t109.5 -43t124.5 -35.5q32 0 53.5 20t27.5 67h130q-1 -135 -50.5 -193t-127.5 -58q-34 0 -67 7q-23 6 -115 41t-134 35q-32 0 -50 -19.5t-19 -67.5h-128q-1 23 -1 36z" />
<glyph unicode="&#x2013;" horiz-adv-x="1000" d="M0 500v200h800v-200h-800z" />
<glyph unicode="&#x2014;" horiz-adv-x="1200" d="M0 500v200h1000v-200h-1000z" />
<glyph unicode="&#x2018;" horiz-adv-x="500" d="M0 1000v200l100 200h100v-200h100v-200h-300z" />
<glyph unicode="&#x2019;" horiz-adv-x="500" d="M0 1200v200h300v-200l-100 -200h-100v200h-100z" />
<glyph unicode="&#x201a;" horiz-adv-x="500" d="M0 0v200h300v-200l-100 -200h-100v200h-100z" />
<glyph unicode="&#x201c;" horiz-adv-x="1000" d="M0 1000v200l100 200h100v-200h100v-200h-300zM500 1000v200l100 200h100v-200h100v-200h-300z" />
<glyph unicode="&#x201d;" horiz-adv-x="1000" d="M0 1200v200h300v-200l-100 -200h-100v200h-100zM500 1200v200h300v-200l-100 -200h-100v200h-100z" />
<glyph unicode="&#x201e;" horiz-adv-x="1000" d="M0 0v200h300v-200l-100 -200h-100v200h-100zM500 0v200h300v-200l-100 -200h-100v200h-100z" />
<glyph unicode="&#x2022;" horiz-adv-x="600" d="M0 400v400h400v-400h-400z" />
<glyph unicode="&#x2026;" horiz-adv-x="1896" d="M0 0v200h300v-200h-300zM703 0v200h300v-200h-300zM1396 0v200h300v-200h-300z" />
<glyph unicode="&#x2039;" horiz-adv-x="700" d="M0 600l300 400h200l-300 -400l300 -400h-200z" />
<glyph unicode="&#x203a;" horiz-adv-x="700" d="M0 200l300 400l-300 400h200l300 -400l-300 -400h-200z" />
<glyph unicode="&#x20ac;" horiz-adv-x="1500" d="M0 350v200h100v100h-100v200h100v150q0 200 200 200h1000v-200h-800v-150h500v-200h-500v-100h300v-200h-300v-150h800v-200h-1000q-200 0 -200 200v150h-100z" />
<glyph unicode="&#x2122;" horiz-adv-x="2100" d="M0 1200v200h800v-200h-300v-800h-200v800h-300zM900 400v1000h266l231 -720l303 720h200v-1000h-200v550l-200 -550h-200l-200 550v-550h-200z" />
<glyph unicode="&#xe000;" horiz-adv-x="1000" d="M0 1000h1000v-1000h-1000v1000z" />
<glyph unicode="&#xfb01;" horiz-adv-x="1500" d="M0 800v200h200v200q0 200 200 200h400v-200h-300v-200h300v-200h-300v-800h-300v800h-200zM1000 0v1000h300v-1000h-300zM1000 1200v200h300v-200h-300z" />
<glyph unicode="&#xfb02;" horiz-adv-x="1500" d="M0 800v200h200v200q0 200 200 200h400v-200h-300v-200h300v-200h-300v-800h-300v800h-200zM1000 0v1400h300v-1400h-300z" />
<glyph unicode="&#xfb03;" horiz-adv-x="2500" d="M2000 0v1000h300v-1000h-300zM2000 1200v200h300v-200h-300zM1000 800v200h200v200q0 200 200 200h400v-200h-300v-200h300v-200h-300v-800h-300v800h-200zM0 800v200h200v200q0 200 200 200h400v-200h-300v-200h300v-200h-300v-800h-300v800h-200z" />
<glyph unicode="&#xfb04;" horiz-adv-x="2500" d="M2000 0v1400h300v-1400h-300zM1000 800v200h200v200q0 200 200 200h400v-200h-300v-200h300v-200h-300v-800h-300v800h-200zM0 800v200h200v200q0 200 200 200h400v-200h-300v-200h300v-200h-300v-800h-300v800h-200z" />
</font>
</defs>
</svg>
